<?xml version="1.0" standalone="no"?>
<!DOCTYPE svg PUBLIC "-//W3C//DTD SVG 20010904//EN"
 "http://www.w3.org/TR/2001/REC-SVG-20010904/DTD/svg10.dtd">
<svg version="1.0" xmlns="http://www.w3.org/2000/svg"
 width="200.000000pt" height="200.000000pt" viewBox="0 0 200.000000 200.000000"
 preserveAspectRatio="xMidYMid meet">

<g transform="translate(0.000000,200.000000) scale(0.100000,-0.100000)"
stroke="none">
<path d="M966 1898 c-22 -48 -28 -55 -76 -71 -55 -20 -132 -83 -156 -128 l-14
-27 50 -17 c28 -9 50 -20 50 -23 0 -4 -19 -53 -42 -110 -40 -99 -43 -103 -67
-97 -14 4 -48 22 -74 41 l-49 35 -66 -58 c-90 -81 -107 -105 -106 -156 0 -47
40 -146 78 -193 13 -17 54 -46 89 -65 63 -32 64 -34 50 -55 -22 -33 -99 -48
-153 -29 -23 8 -46 12 -51 9 -12 -7 -11 -38 2 -51 7 -7 3 -12 -15 -17 -23 -6
-38 -36 -18 -36 4 0 14 -5 22 -10 12 -8 10 -14 -15 -40 -41 -43 -24 -56 46
-36 29 9 63 16 75 16 22 0 23 -2 17 -72 -4 -49 -12 -82 -25 -101 -48 -68 -43
-115 22 -218 37 -56 38 -89 5 -120 -36 -35 -33 -59 9 -59 30 0 33 -2 28 -25
-2 -13 -2 -32 2 -41 5 -14 10 -13 40 5 l33 21 26 -32 25 -33 18 34 c11 19 37
53 59 76 l40 41 30 -18 c17 -10 35 -19 40 -21 6 -2 3 -19 -7 -41 -22 -44 -22
-56 -5 -56 8 0 19 -12 26 -26 10 -23 16 -26 46 -21 30 5 35 3 35 -14 0 -16 7
-19 53 -19 39 0 70 9 122 33 81 39 90 48 99 99 6 31 12 39 34 44 132 29 289
119 379 217 68 73 68 127 2 160 -22 10 -37 27 -45 49 -9 28 -16 33 -45 34 -19
0 -46 8 -59 16 -14 9 -37 18 -52 22 -24 6 -28 11 -28 43 0 19 -10 51 -21 70
l-22 35 22 44 c26 54 27 83 4 123 -17 29 -17 30 5 54 26 28 28 57 6 99 -15 28
-14 33 2 63 17 32 17 34 -5 84 l-22 52 21 35 22 34 -27 46 c-21 36 -25 53 -20
82 5 33 2 41 -25 67 -24 23 -30 37 -30 69 0 51 -6 60 -52 79 -22 9 -43 28 -53
46 -17 33 -50 47 -90 37 -31 -8 -83 14 -114 48 -38 40 -59 34 -85 -26z m87 -3
c42 -36 53 -39 124 -35 39 2 43 -1 67 -38 17 -27 37 -44 61 -52 33 -11 35 -14
35 -57 0 -37 5 -50 30 -73 27 -25 30 -33 24 -68 -5 -32 -1 -46 21 -80 l27 -41
-23 -32 c-19 -28 -21 -36 -11 -60 7 -16 17 -42 24 -58 10 -26 9 -33 -6 -50
-19 -21 -18 -41 5 -98 12 -29 11 -34 -9 -56 -25 -27 -28 -54 -7 -81 21 -27 19
-65 -5 -101 -25 -38 -25 -60 -1 -94 11 -15 21 -47 23 -71 3 -42 5 -45 39 -55
21 -5 46 -18 56 -28 14 -12 29 -15 50 -11 23 5 32 2 37 -11 10 -26 4 -27 -56
-6 -79 27 -112 46 -142 81 -40 48 -49 99 -42 240 18 347 18 494 2 570 -43 200
-168 321 -337 324 -38 0 -69 2 -69 4 0 10 30 72 35 72 4 0 25 -16 48 -35z
m-30 -341 c51 -26 157 -104 157 -116 0 -5 -21 -44 -47 -85 l-47 -75 -58 6
c-33 3 -68 11 -79 17 -23 12 -39 48 -39 90 0 34 58 179 72 179 5 0 23 -7 41
-16z m-15 -438 c-29 -59 -34 -64 -57 -60 -14 3 -53 -2 -86 -10 -95 -25 -179
-21 -250 12 -33 16 -66 36 -73 45 -12 14 -9 14 34 1 146 -44 376 -14 440 57 9
10 19 19 20 19 2 0 -10 -29 -28 -64z m-54 -113 c-80 -182 -102 -326 -66 -421
16 -42 19 -60 11 -80 -12 -30 -4 -84 22 -159 10 -30 16 -60 12 -68 -28 -74
-287 160 -338 305 -18 50 -19 138 -4 195 6 22 29 79 51 127 l40 87 67 -1 c65
0 187 25 206 43 16 16 16 10 -1 -28z m586 -634 c-42 -36 -108 -70 -181 -96
-39 -13 -72 -23 -74 -21 -2 2 -1 15 2 29 4 23 11 26 76 36 42 6 97 22 132 40
74 37 76 37 45 12z"/>
</g>
</svg>
